<svg width="16" height="16" viewBox="0 0 16 16" fill="none" xmlns="http://www.w3.org/2000/svg">
<g clip-path="url(#clip0_17_255)">
<path d="M8.48021 1.35333C4.42021 1.06667 1.06687 4.42 1.35354 8.48C1.59354 12.0067 4.67354 14.6667 8.20687 14.6667H10.6669C11.0335 14.6667 11.3335 14.3667 11.3335 14C11.3335 13.6333 11.0335 13.3333 10.6669 13.3333H8.22021C5.73354 13.3333 3.45354 11.72 2.83354 9.31333C1.84021 5.44667 5.44021 1.84 9.30687 2.84C11.7202 3.45333 13.3335 5.73333 13.3335 8.22V8.95333C13.3335 9.48 12.8602 10 12.3335 10C11.8069 10 11.3335 9.48 11.3335 8.95333V8.12C11.3335 6.44667 10.1469 4.94 8.49354 4.70667C6.22687 4.38 4.31354 6.34 4.72021 8.62C4.94687 9.89333 5.94021 10.9467 7.20021 11.2467C8.42687 11.5333 9.59354 11.14 10.3602 10.36C10.9535 11.1733 12.1402 11.6 13.2269 11.1667C14.1202 10.8133 14.6669 9.9 14.6669 8.94V8.21333C14.6669 4.67333 12.0069 1.59333 8.48021 1.35333ZM8.00021 10C6.89354 10 6.00021 9.10667 6.00021 8C6.00021 6.89333 6.89354 6 8.00021 6C9.10687 6 10.0002 6.89333 10.0002 8C10.0002 9.10667 9.10687 10 8.00021 10Z" fill="#25344B"/>
</g>
<defs>
<clipPath id="clip0_17_255">
<rect width="16" height="16" fill="white"/>
</clipPath>
</defs>
</svg>
